# xmcd CD database file
#
# Track frame offsets:
#	150
#	16916
#	39403
#	55332
#	74642
#	98458
#	115188
#	128128
#
# Disc length: 2545 seconds
#
# Revision: 0
# Processed by: cddbd v1.5.1PL0 Copyright (c) Steve Scherf et al.
# Submitted via: Feurio! 1.68 - http://www.feurio.com
#
DISCID=6409ef08
DTITLE=Mahones - Get Stuffed
DYEAR=2002
DGENRE=Folk
TTITLE0=Get Stuffed
TTITLE1=Salonika
TTITLE2=Poultry Polka
TTITLE3=Ride in (Johnsons Motorcar)
TTITLE4=Black is the Colour
TTITLE5=Salt Creek (feat Lecker Sachen)
TTITLE6=Der lachende Vagabund
TTITLE7=Danny Malone
EXTD=
EXTT0=
EXTT1=
EXTT2=
EXTT3=
EXTT4=
EXTT5=
EXTT6=
EXTT7=
PLAYORDER=
